<?xml version="1.0" encoding="utf-8"?>
<!-- Generator: Adobe Illustrator 24.0.2, SVG Export Plug-In . SVG Version: 6.00 Build 0)  -->
<svg version="1.1" id="Layer_1" xmlns="http://www.w3.org/2000/svg" xmlns:xlink="http://www.w3.org/1999/xlink" x="0px" y="0px"
	 viewBox="0 0 344.6 104.8" style="enable-background:new 0 0 344.6 104.8;" xml:space="preserve">
<style type="text/css">
	.st0{fill:#E83A68;}
	.st1{font-family:'STHeitiTC-Medium';}
	.st2{font-size:68.3546px;}
</style>
<text transform="matrix(1 0 0 1 93.4468 61.3984)" class="st0 st1 st2">prosffer</text>
<path class="st0" d="M109,38.2c0-0.4,0-0.7-0.1-1c-0.2-0.5-0.5-0.9-0.9-1.3c-0.4-0.4-0.9-0.8-1.4-1.2c-1.2-0.9-2.8-1.7-4.1-2.3
	c-1.4-0.6-2.6-1.1-3.3-1.4c-0.8-0.3-2.7-1.1-5.1-1.8c-3.7-1.2-8.8-2.4-13.9-2.6c-2.6-0.1-5.1,0.1-7.6,0.7c-2.4,0.6-4.6,1.6-6.5,3.3
	l-4-3.2c-0.8-1.2-1.9-2-3.3-2.3c-0.5-0.2-1-0.2-1.5-0.2l-0.4,0l-15,1.7l-28.9,3.4C9.8,30.2,7.7,33,8,36l3.5,30.1
	c0.3,3,3.1,5.2,6.1,4.8l7.9-0.9l-2.7,3.8c-1.7,2.5-1.1,5.9,1.3,7.6L49,98.8c2.5,1.7,5.9,1.1,7.6-1.3L73,74.2
	c0.1-0.1,0.3-0.3,0.4-0.5l8.9-12.6c0.4-0.6,0.6-1.3,0.7-2c0.2-1.2,0-2.3-0.5-3.4L81,47.3c0.7,0,1.4-0.1,2.1-0.2
	c1.8-0.3,3.6-0.9,5.3-1.9c0.8-0.5,1.4-0.9,1.9-1.4c0.4-0.3,0.6-0.6,0.9-0.9c0.4-0.4,0.7-0.8,1.1-1c0.4-0.3,0.8-0.5,1.6-0.7
	c0.9-0.3,1.8-0.3,2.6-0.2c0.6,0,1.3,0.2,1.9,0.3c1,0.2,2,0.4,3.1,0.5c1.1,0.1,2.3-0.1,3.7-0.5c0.4-0.1,1-0.4,1.7-0.7
	c0.3-0.2,0.7-0.3,1-0.6c0.3-0.2,0.6-0.5,0.8-0.8C108.8,38.8,108.9,38.5,109,38.2z M53.5,35.3c-1.4-0.2-2.8,0.1-3.9,0.9
	c-0.4,0.3-0.8,0.6-1.1,1l-0.2,0.3L39.6,50l-11.2,16l-8,0.9c-2.6,0.3-4.9-1.4-5.2-3.9l-2.8-24.3c-0.3-2.4,1.6-4.6,4.2-4.9l24.9-2.9
	l12.9-1.5l0.3,0c0.4-0.1,0.9,0,1.3,0.1c1.2,0.3,2.2,0.9,2.8,1.8l3.4,2.5L53.5,35.3z M66.4,47.8c-1.9-1.3-2.4-4-1.2-5.9
	c0.4,0.3,0.8,0.6,1.2,0.9c0.4,0.3,0.8,0.6,1.2,0.8c1.6,1,3.4,1.9,5.4,2.6c-0.1,0.2-0.2,0.4-0.4,0.6C71.1,48.7,68.4,49.2,66.4,47.8z
	 M66,40.9c1.3-1.1,3.1-1.4,4.7-0.7l1.6,1.2c0.8,1,1.2,2.3,1,3.6c-1.9-0.6-3.6-1.5-5.1-2.4c-0.3-0.2-0.7-0.5-1.1-0.8
	C66.7,41.4,66.4,41.2,66,40.9z M107,38.9c-0.3,0.2-0.8,0.5-1.2,0.6c-0.4,0.2-0.8,0.3-1.1,0.4c-1.1,0.4-2,0.5-2.9,0.5
	c-0.7,0-1.3-0.1-2-0.2c-1-0.2-1.9-0.4-3-0.5c-1.1-0.1-2.2-0.1-3.4,0.3c-0.8,0.2-1.3,0.5-1.8,0.8c-0.4,0.2-0.6,0.5-0.9,0.8
	c-0.4,0.4-0.7,0.8-1.2,1.2c-0.4,0.4-1,0.9-1.8,1.4c-1.5,0.9-3.1,1.4-4.9,1.7c-0.7,0.1-1.4,0.2-2.1,0.2l-2-11.4c-0.4-2-2.3-3.3-4.3-3
	l-5.7,1L67,31.2c1.1-0.9,2.3-1.6,3.6-2.1c2.5-1,5.3-1.4,8.2-1.4c4.3,0,8.7,0.9,12.3,1.9c1.8,0.5,3.4,1,4.7,1.5
	c1.3,0.5,2.2,0.8,2.8,1c0.7,0.3,1.9,0.7,3.2,1.4c1.3,0.6,2.8,1.4,3.9,2.2c0.6,0.5,1.2,0.9,1.5,1.3c0.2,0.2,0.3,0.4,0.3,0.6
	c0.1,0.2,0.1,0.3,0.1,0.4c0,0.1-0.1,0.3-0.2,0.4C107.4,38.5,107.2,38.7,107,38.9z"/>
</svg>
