<?xml version="1.0" encoding="utf-8"?>
<!-- Generator: Adobe Illustrator 24.0.2, SVG Export Plug-In . SVG Version: 6.00 Build 0)  -->
<svg version="1.1" id="Layer_1" xmlns="http://www.w3.org/2000/svg" xmlns:xlink="http://www.w3.org/1999/xlink" x="0px" y="0px"
	 viewBox="0 0 344.6 104.8" style="enable-background:new 0 0 344.6 104.8;" xml:space="preserve">
<style type="text/css">
	.st0{fill:#DD2630;}
	.st1{font-family:'STHeitiTC-Medium';}
	.st2{font-size:61.692px;}
</style>
<text transform="matrix(1 0 0 1 105.4648 75.2783)" class="st0 st1 st2">prosffer</text>
<path class="st0" d="M78.9,69c0.6-1,0.8-2.3,0.7-3.4L83.5,44c0.4-2.1-1-4-3.1-4.4l-5.8-1l-4.7-7.7c-0.3-1.4-1.2-2.6-2.4-3.4
	c-0.4-0.3-0.9-0.6-1.4-0.7l-0.4-0.1L50.6,23l-29.1-7c-3-0.7-6.1,1.1-6.8,4.2L7.4,50.5c-0.7,3,1.1,6.1,4.2,6.8l8,1.9l-4,2.8
	c-2.6,1.8-3.2,5.3-1.4,7.9L32,95.4c1.8,2.6,5.3,3.2,7.9,1.4l24-16.7c0.2-0.1,0.4-0.2,0.6-0.3l13-9.1C78.1,70.3,78.6,69.7,78.9,69z
	 M74.8,48.1c0.7,1.9,0.1,4.1-1.7,5.3c-2.1,1.4-4.9,0.9-6.3-1.1c-1.4-2.1-0.9-4.9,1.1-6.3c1.8-1.3,4.2-1,5.7,0.4L74.8,48.1z
	 M15.7,54.4c-2.6-0.6-4.2-3.1-3.7-5.6l5.9-24.4c0.6-2.4,3.2-3.9,5.8-3.3l25,6l13,3.1l0.3,0.1c0.5,0.1,0.9,0.3,1.2,0.6
	c1,0.7,1.8,1.7,2.1,2.8l2.4,3.6l-8.9-1.6c-1.3-0.7-2.7-0.9-4.1-0.5c-0.5,0.1-1,0.3-1.5,0.6L52.9,36l-12.7,8.9L23.7,56.3L15.7,54.4z"
	/>
</svg>
