<?xml version="1.0" encoding="utf-8"?>
<!-- Generator: Adobe Illustrator 24.0.2, SVG Export Plug-In . SVG Version: 6.00 Build 0)  -->
<svg version="1.1" id="Layer_1" xmlns="http://www.w3.org/2000/svg" xmlns:xlink="http://www.w3.org/1999/xlink" x="0px" y="0px"
	 viewBox="0 0 344.6 104.8" style="enable-background:new 0 0 344.6 104.8;" xml:space="preserve">
<style type="text/css">
	.st0{fill:#E83A68;}
	.st1{font-family:'STHeitiTC-Medium';}
	.st2{font-size:58.485px;}
</style>
<text transform="matrix(1 0 0 1 129.1646 68.7344)" class="st0 st1 st2">prosffer</text>
<g>
	<path class="st0" d="M51.9,5.6L5.8,51.7c-0.8,0.8-0.8,2,0,2.8l46.1,46.1c1.3,1.3,3.4,0.4,3.4-1.4V78.1c0-0.5-0.2-1-0.6-1.4
		l-7.1-7.1c-0.8-0.8-0.8-2,0-2.8l7.1-7.1c0.4-0.4,0.6-0.9,0.6-1.4v-7.7c0-1.8-2.1-2.7-3.4-1.4L41.2,59.8c-0.8,0.8-2,0.8-2.8,0
		l-7.1-7.1c-0.8-0.8-0.8-2,0-2.8l23.5-23.5c0.4-0.4,0.6-0.9,0.6-1.4V7C55.3,5.2,53.1,4.3,51.9,5.6z"/>
	<path class="st0" d="M109.6,51.7L63.5,5.6c-1.3-1.3-3.4-0.4-3.4,1.4v18c0,0.5,0.2,1,0.6,1.4l23.5,23.5c0.8,0.8,0.8,2,0,2.8
		l-7.1,7.1c-0.8,0.8-2,0.8-2.8,0L63.5,49.1c-1.3-1.3-3.4-0.4-3.4,1.4v7.7c0,0.5,0.2,1,0.6,1.4l7.1,7.1c0.8,0.8,0.8,2,0,2.8l-7.1,7.1
		c-0.4,0.4-0.6,0.9-0.6,1.4v21.1c0,1.8,2.1,2.7,3.4,1.4l46.1-46.1C110.4,53.7,110.4,52.4,109.6,51.7z"/>
</g>
</svg>
