<?xml version="1.0" encoding="utf-8"?>
<!-- Generator: Adobe Illustrator 24.0.2, SVG Export Plug-In . SVG Version: 6.00 Build 0)  -->
<svg version="1.1" id="Layer_1" xmlns="http://www.w3.org/2000/svg" xmlns:xlink="http://www.w3.org/1999/xlink" x="0px" y="0px"
	 viewBox="0 0 344.6 104.8" style="enable-background:new 0 0 344.6 104.8;" xml:space="preserve">
<style type="text/css">
	.st0{fill:#DD2630;}
</style>
<g>
	<path class="st0" d="M157.9,38.2c-1,0.7-2.1,1.9-3.1,3.4V38h-5.2v33.6h5.2V60c0-5.3,0.3-9,0.8-11c0.5-2,1.3-3.7,2.3-4.9
		c1-1.3,2.2-1.9,3.5-1.9c0.7,0,1.3,0.2,2,0.6l2.7-4.3c-1.7-0.9-3.2-1.4-4.5-1.4S158.9,37.5,157.9,38.2z"/>
	<path class="st0" d="M127.2,37.1c-4.9,0-9,2-12.3,6V38h-5.1v45.5h5.1V66.6c3.7,4,7.9,6,12.6,6c4.8,0,8.8-1.7,12.2-5.2
		c3.4-3.5,5.1-7.7,5.1-12.6c0-4.9-1.7-9.1-5.1-12.6C136.2,38.8,132.1,37.1,127.2,37.1z M136,64.1c-2.5,2.5-5.4,3.8-8.8,3.8
		c-3.5,0-6.5-1.2-8.9-3.7c-2.5-2.5-3.7-5.6-3.7-9.2c0-3.7,1.2-6.7,3.6-9.2c2.4-2.5,5.4-3.7,8.9-3.7s6.5,1.3,9,3.8
		c2.4,2.5,3.7,5.6,3.7,9.2C139.7,58.6,138.5,61.6,136,64.1z"/>
	<path class="st0" d="M257.8,27.4c-1.1,1.4-1.7,3.7-1.7,6.7V38h-4.3v4.4h4.3v29.2h5.1V42.4h6.8V38h-6.8v-3.1c0-1.7,0.2-2.9,0.5-3.6
		c0.3-0.7,1-1.1,2.2-1.1s2.7,0.4,4.6,1.2v-5.1c-2.3-0.6-4.1-0.9-5.4-0.9C260.7,25.3,258.9,26,257.8,27.4z"/>
	<path class="st0" d="M301.5,42.1c-3.3-3.3-7.4-5-12.3-5c-4.9,0-9,1.7-12.3,5.2c-3.3,3.5-5,7.7-5,12.6c0,4.9,1.6,9.1,4.9,12.6
		c3.3,3.5,7.5,5.2,12.5,5.2c3.7,0,6.8-0.9,9.4-2.6c2.6-1.7,4.9-4.3,6.8-7.9l-4.3-2.2c-2.8,5.3-7,8-12.3,8c-3.2,0-5.9-1.1-8.2-3.4
		c-2.3-2.2-3.5-5.2-3.7-8.9h29.5C306.5,49.9,304.7,45.4,301.5,42.1z M277.7,51.2c1.9-6.1,5.7-9.1,11.5-9.1c2.8,0,5.3,0.8,7.5,2.4
		c2.2,1.6,3.6,3.8,4.2,6.7H277.7z"/>
	<path class="st0" d="M323.2,37.1c-1.3,0-2.5,0.4-3.6,1.1s-2.1,1.9-3.1,3.4V38h-5.2v33.6h5.2V60c0-5.3,0.3-9,0.8-11
		c0.5-2,1.3-3.7,2.3-4.9c1-1.3,2.2-1.9,3.5-1.9c0.7,0,1.3,0.2,2,0.6l2.7-4.3C326.1,37.5,324.5,37.1,323.2,37.1z"/>
	<path class="st0" d="M238.4,27.4c-1.1,1.4-1.7,3.7-1.7,6.7V38h-4.3v4.4h4.3v29.2h5.1V42.4h6.8V38h-6.8v-3.1c0-1.7,0.2-2.9,0.5-3.6
		c0.3-0.7,1-1.1,2.2-1.1s2.7,0.4,4.6,1.2v-5.1c-2.3-0.6-4.1-0.9-5.4-0.9C241.3,25.3,239.5,26,238.4,27.4z"/>
	<path class="st0" d="M186.3,37.1c-4.9,0-9,1.7-12.4,5.2c-3.4,3.5-5.1,7.7-5.1,12.6c0,4.9,1.7,9.1,5.1,12.6
		c3.4,3.5,7.5,5.2,12.5,5.2c4.9,0,9.1-1.7,12.4-5.2c3.4-3.5,5-7.7,5-12.6c0-4.9-1.7-9.1-5.1-12.6C195.3,38.8,191.2,37.1,186.3,37.1z
		 M195.1,64.1c-2.4,2.5-5.3,3.7-8.7,3.7c-3.5,0-6.5-1.2-8.8-3.7c-2.3-2.5-3.5-5.5-3.5-9c0-3.5,1.2-6.6,3.6-9.2
		c2.4-2.6,5.3-3.9,8.7-3.9c3.4,0,6.3,1.3,8.7,3.9c2.4,2.6,3.7,5.6,3.7,9.1C198.7,58.6,197.5,61.6,195.1,64.1z"/>
	<path class="st0" d="M218.4,41.9c2,0,4.2,1.1,6.7,3.4l3.3-3.4c-3.3-3.2-6.4-4.8-9.3-4.8s-5.3,0.9-7.1,2.6c-1.8,1.7-2.7,3.8-2.7,6.3
		c0,2.4,0.6,4.4,1.9,5.9c1.3,1.5,3.1,2.9,5.6,4.1c2.4,1.2,4.2,2.3,5.2,3.2c1,0.9,1.5,2.1,1.5,3.5c0,1.4-0.6,2.6-1.7,3.6
		c-1.1,1-2.4,1.5-4,1.5c-2.3,0-4.6-1.3-6.8-3.9l-3.2,3.6c2.7,3.5,6.1,5.2,10.2,5.2c2.9,0,5.4-1,7.4-3c2-2,3-4.4,3-7.3
		c0-2.3-0.7-4.2-2-5.7c-1.3-1.6-3.2-3-5.7-4.3s-4.2-2.4-5.2-3.3c-1-0.9-1.4-1.9-1.4-3.1c0-1.2,0.4-2.2,1.3-3
		C216,42.3,217.1,41.9,218.4,41.9z"/>
</g>
<path class="st0" d="M78.9,69c0.6-1,0.8-2.3,0.7-3.4L83.5,44c0.4-2.1-1-4-3.1-4.4l-5.8-1l-4.7-7.7c-0.3-1.4-1.2-2.6-2.4-3.4
	c-0.4-0.3-0.9-0.6-1.4-0.7l-0.4-0.1L50.6,23l-29.1-7c-3-0.7-6.1,1.1-6.8,4.2L7.4,50.5c-0.7,3,1.1,6.1,4.2,6.8l8,1.9l-4,2.8
	c-2.6,1.8-3.2,5.3-1.4,7.9L32,95.4c1.8,2.6,5.3,3.2,7.9,1.4l24-16.7c0.2-0.1,0.4-0.2,0.6-0.3l13-9.1C78.1,70.3,78.6,69.7,78.9,69z
	 M74.8,48.1c0.7,1.9,0.1,4.1-1.7,5.3c-2.1,1.4-4.9,0.9-6.3-1.1c-1.4-2.1-0.9-4.9,1.1-6.3c1.8-1.3,4.2-1,5.7,0.4L74.8,48.1z
	 M15.7,54.4c-2.6-0.6-4.2-3.1-3.7-5.6l5.9-24.4c0.6-2.4,3.2-3.9,5.8-3.3l25,6l13,3.1l0.3,0.1c0.5,0.1,0.9,0.3,1.2,0.6
	c1,0.7,1.8,1.7,2.1,2.8l2.4,3.6l-8.9-1.6c-1.3-0.7-2.7-0.9-4.1-0.5c-0.5,0.1-1,0.3-1.5,0.6L52.9,36l-12.7,8.9L23.7,56.3L15.7,54.4z"
	/>
</svg>
