<?xml version="1.0" encoding="utf-8"?>
<!-- Generator: Adobe Illustrator 24.0.2, SVG Export Plug-In . SVG Version: 6.00 Build 0)  -->
<svg version="1.1" id="Layer_1" xmlns="http://www.w3.org/2000/svg" xmlns:xlink="http://www.w3.org/1999/xlink" x="0px" y="0px"
	 viewBox="0 0 175.9 177.2" style="enable-background:new 0 0 175.9 177.2;" xml:space="preserve">
<style type="text/css">
	.st0{fill:#3E3E3E;}
</style>
<g>
	<path class="st0" d="M108.1,42.9H28.7c-3.1,0-5.5-2.5-5.5-5.5l0,0c0-3.1,2.5-5.5,5.5-5.5h79.4c3.1,0,5.5,2.5,5.5,5.5l0,0
		C113.6,40.4,111.1,42.9,108.1,42.9z"/>
	<path class="st0" d="M108.1,63.7H28.7c-3.1,0-5.5-2.5-5.5-5.5l0,0c0-3.1,2.5-5.5,5.5-5.5h79.4c3.1,0,5.5,2.5,5.5,5.5l0,0
		C113.6,61.2,111.1,63.7,108.1,63.7z"/>
	<path class="st0" d="M108.1,87.9H28.7c-3.1,0-5.5-2.5-5.5-5.5l0,0c0-3.1,2.5-5.5,5.5-5.5h79.4c3.1,0,5.5,2.5,5.5,5.5l0,0
		C113.6,85.4,111.1,87.9,108.1,87.9z"/>
	<path class="st0" d="M75.1,112.4H28.7c-3.1,0-5.5-2.5-5.5-5.5l0,0c0-3.1,2.5-5.5,5.5-5.5h46.4c3.1,0,5.5,2.5,5.5,5.5l0,0
		C80.6,110,78.1,112.4,75.1,112.4z"/>
	<path class="st0" d="M153.3,168.5h-46.4c-3.1,0-5.5-2.5-5.5-5.5l0,0c0-3.1,2.5-5.5,5.5-5.5h46.4c3.1,0,5.5,2.5,5.5,5.5l0,0
		C158.8,166.1,156.3,168.5,153.3,168.5z"/>
	<path class="st0" d="M139.1,146.8l26.1-38.3c1.7-2.5,1.1-6-1.5-7.7l0,0c-2.5-1.7-6-1.1-7.7,1.5l-16.6,24.3V84.3
		c0-3.1-2.5-5.5-5.5-5.5c-3.1,0-5.5,2.5-5.5,5.5v44l-19.7-24.2c-1.9-2.4-5.4-2.7-7.8-0.8l0,0c-2.4,1.9-2.7,5.4-0.8,7.8l29.3,36
		c0.9,1.1,2.1,1.7,3.4,1.9C135.1,149.6,137.7,148.9,139.1,146.8z"/>
	<g>
		<path class="st0" d="M136,32.6c0-6.7-2.7-12.7-7-17.1c-4.4-4.4-10.5-7.1-17.1-7.1H24.1c-6.6,0-12.7,2.7-17.1,7.1S0,26,0,32.7v88.4
			c0,6.7,2.7,12.8,7,17.2s10.5,7.1,17.1,7.1h65.4v-6.3H24.1c-5,0-9.4-2-12.6-5.3c-3.2-3.2-5.3-7.7-5.3-12.7V32.6c0-5,2-9.5,5.3-12.7
			c3.2-3.2,7.7-5.3,12.6-5.3h87.8c5,0,9.4,2,12.6,5.3c3.2,3.2,5.3,7.7,5.3,12.7v34.6h6.2V32.6z"/>
	</g>
</g>
</svg>
