<?xml version="1.0" encoding="utf-8"?>
<!-- Generator: Adobe Illustrator 24.0.2, SVG Export Plug-In . SVG Version: 6.00 Build 0)  -->
<svg version="1.1" id="Layer_1" xmlns="http://www.w3.org/2000/svg" xmlns:xlink="http://www.w3.org/1999/xlink" x="0px" y="0px"
	 viewBox="0 0 136 137" style="enable-background:new 0 0 136 137;" xml:space="preserve">
<style type="text/css">
	.st0{fill:#3E3E3E;}
</style>
<path class="st0" d="M103.4,63.1c-0.7-1.3-1.6-2.5-2.6-3.4l-0.2-0.2l-0.3-0.2L50.8,28.9c-0.9-0.7-1.8-1.2-2.8-1.5
	C46.9,27,45.9,27,45.1,27c-1.6,0-3.1,0.4-4.4,1.1c-1.3,0.7-2.5,1.6-3.5,2.9v0.1v0.1c-0.6,0.9-1.1,1.9-1.4,2.9c-0.3,1-0.5,2-0.5,3
	c0,1.5,0.3,3,1.1,4.4c0.7,1.4,1.9,2.6,3.3,3.4l0,0c12.4,7.7,24.7,15.3,37,22.8L35.9,92.2l0,0c-1.5,0.8-2.7,2.1-3.4,3.5
	c-0.7,1.5-1,3-1,4.5c0,1,0.2,1.9,0.5,2.9s0.7,2,1.6,3.1v0.1v0.1c0.9,1.1,2,2,3.3,2.6c1.3,0.7,2.8,1.1,4.4,1.1c1,0,2-0.2,3-0.5
	s1.9-0.8,2.7-1.3l53.6-32.7l0.2-0.2c1.1-0.9,2-2,2.6-3.3c0.7-1.3,1.1-2.8,1.1-4.4C104.5,66,104.1,64.5,103.4,63.1z"/>
</svg>
