<?xml version="1.0" encoding="utf-8"?>
<!-- Generator: Adobe Illustrator 24.0.2, SVG Export Plug-In . SVG Version: 6.00 Build 0)  -->
<svg version="1.1" id="Layer_1" xmlns="http://www.w3.org/2000/svg" xmlns:xlink="http://www.w3.org/1999/xlink" x="0px" y="0px"
	 viewBox="0 0 136 137" style="enable-background:new 0 0 136 137;" xml:space="preserve">
<style type="text/css">
	.st0{fill:#3E3E3E;}
</style>
<path class="st0" d="M47.7,38.2L47.7,38.2L47.7,38.2z"/>
<path class="st0" d="M15.9,75.7L15.9,75.7L15.9,75.7z"/>
<circle class="st0" cx="68" cy="68.5" r="11.2"/>
<g>
	<path class="st0" d="M114.9,63c-1.4-3-3.6-5.9-6.4-8.6c-4.3-4.3-10-8.3-16.9-11.3c-6.8-3-14.8-5.1-23.4-5.1
		c-6.7,0.1-12.9,1.3-18.5,3.4c-8.4,3.1-15.4,7.7-20.6,12.4c-2.5,2.3-4.6,4.7-6.2,7c-0.8,1.2-1.4,2.4-1.9,3.5c-0.6,1.2-1,2.7-1,4.2
		c0,2.1,0.5,4.2,1.4,6c1.4,3.3,3.8,6.3,6.7,9.1c4.4,4.2,10.4,8,17.4,10.8c7,2.8,15,4.6,23.5,4.6c6.7,0,13-1.4,18.5-3.5
		c8.4-3.1,15.2-7.9,20.1-12.7c2.5-2.4,4.3-4.9,5.8-7v-0.1v-0.1c0.6-1.1,1.2-2.2,1.7-3.5c0.4-1.1,0.8-2.4,0.8-3.9
		C116.2,66.5,115.6,64.6,114.9,63z M68,88.8c-11.2,0-20.3-9.1-20.3-20.3S56.8,48.2,68,48.2s20.3,9.1,20.3,20.3S79.2,88.8,68,88.8z"
		/>
</g>
<g>
	<g>
		<path class="st0" d="M47,36.9L47,36.9L47,36.9z"/>
		<path class="st0" d="M14.1,76L14.1,76L14.1,76z"/>
		<path class="st0" d="M129,7.1C124.6,2.7,118.5,0,111.9,0H24.1C17.5,0,11.4,2.7,7,7.1S0,17.6,0,24.3v88.4c0,6.7,2.7,12.8,7,17.2
			c4.3,4.4,10.5,7.1,17.1,7.1h87.8c6.6,0,12.7-2.7,17.1-7.1c4.3-4.4,7-10.5,7-17.2V24.2C136,17.5,133.3,11.5,129,7.1z M129.8,112.7
			c0,5-2,9.5-5.3,12.7c-3.2,3.2-7.7,5.3-12.6,5.3H24.1c-5,0-9.4-2-12.6-5.3c-3.2-3.2-5.3-7.7-5.3-12.7V24.2c0-5,2-9.5,5.3-12.7
			c3.2-3.2,7.7-5.3,12.6-5.3h87.8c5,0,9.4,2,12.6,5.3c3.2,3.2,5.3,7.7,5.3,12.7C129.8,24.2,129.8,112.7,129.8,112.7z"/>
	</g>
</g>
</svg>
