<?xml version="1.0" encoding="utf-8"?>
<!-- Generator: Adobe Illustrator 24.0.2, SVG Export Plug-In . SVG Version: 6.00 Build 0)  -->
<svg version="1.1" id="Layer_1" xmlns="http://www.w3.org/2000/svg" xmlns:xlink="http://www.w3.org/1999/xlink" x="0px" y="0px"
	 viewBox="0 0 136 137" style="enable-background:new 0 0 136 137;" xml:space="preserve">
<style type="text/css">
	.st0{fill:#3E3E3E;}
</style>
<g>
	<path class="st0" d="M103.3,59.8H82.6c-1.1,0-2.1-0.5-2.9-1.2s-1.2-1.7-1.2-2.7V35.8c0-2.5-1-4.8-2.7-6.4c-1.6-1.6-3.9-2.6-6.4-2.6
		s-4.7,1-6.4,2.6c-1.6,1.6-2.7,3.8-2.7,6.3v20c0,1.1-0.4,2.1-1.2,2.8c-0.7,0.7-1.7,1.2-2.9,1.2H35.5c-2.5,0-4.7,1-6.4,2.6
		c-1.7,1.6-2.7,3.9-2.7,6.4s1,4.8,2.7,6.4c1.6,1.6,3.9,2.6,6.4,2.6h20.9c1.1,0,2.1,0.5,2.9,1.2c0.8,0.7,1.2,1.7,1.2,2.7v20.1
		c0,2.5,1.1,4.8,2.7,6.4c1.7,1.6,3.9,2.6,6.4,2.6s4.7-1,6.4-2.6c1.6-1.6,2.7-3.8,2.7-6.3V81.5c0-1.1,0.4-2.1,1.2-2.8
		c0.7-0.7,1.7-1.2,2.9-1.2h20.7c2.5,0,4.7-0.9,6.4-2.6c1.6-1.6,2.6-3.9,2.6-6.3c0-2.5-1-4.8-2.7-6.4C108,60.8,105.7,59.8,103.3,59.8
		z"/>
	<path class="st0" d="M127.4,9.8C123.2,5.6,117.3,3,110.9,3H26.1C19.7,3,13.8,5.6,9.6,9.8S2.8,19.9,2.8,26.3v84.8
		c0,6.4,2.6,12.3,6.8,16.5s10.1,6.8,16.5,6.8h84.8c6.4,0,12.3-2.6,16.5-6.8c4.2-4.2,6.8-10.1,6.8-16.5V26.3
		C134.2,19.9,131.6,14,127.4,9.8z M128.2,111.1c0,4.8-1.9,9.1-5.1,12.2c-3.1,3.1-7.4,5.1-12.2,5.1H26.1c-4.8,0-9.1-1.9-12.2-5.1
		c-3.1-3.1-5.1-7.5-5.1-12.2V26.3c0-4.8,1.9-9.1,5.1-12.2C17,10.9,21.3,9,26.1,9h84.8c4.8,0,9.1,1.9,12.2,5.1
		c3.1,3.1,5.1,7.4,5.1,12.2V111.1z"/>
</g>
</svg>
