<?xml version="1.0" encoding="utf-8"?>
<!-- Generator: Adobe Illustrator 24.0.2, SVG Export Plug-In . SVG Version: 6.00 Build 0)  -->
<svg version="1.1" id="Layer_1" xmlns="http://www.w3.org/2000/svg" xmlns:xlink="http://www.w3.org/1999/xlink" x="0px" y="0px"
	 viewBox="0 0 136 137" style="enable-background:new 0 0 136 137;" xml:space="preserve">
<style type="text/css">
	.st0{fill:#3E3E3E;}
</style>
<g>
	<g>
		<path class="st0" d="M47,36.9L47,36.9L47,36.9z"/>
		<path class="st0" d="M14.1,76L14.1,76L14.1,76z"/>
		<path class="st0" d="M129,7.1C124.6,2.7,118.5,0,111.9,0H24.1C17.5,0,11.4,2.7,7,7.1S0,17.6,0,24.3v88.4c0,6.7,2.7,12.8,7,17.2
			c4.3,4.4,10.5,7.1,17.1,7.1h87.8c6.6,0,12.7-2.7,17.1-7.1c4.3-4.4,7-10.5,7-17.2V24.2C136,17.5,133.3,11.5,129,7.1z M129.8,112.7
			c0,5-2,9.5-5.3,12.7c-3.2,3.2-7.7,5.3-12.6,5.3H24.1c-5,0-9.4-2-12.6-5.3c-3.2-3.2-5.3-7.7-5.3-12.7V24.2c0-5,2-9.5,5.3-12.7
			c3.2-3.2,7.7-5.3,12.6-5.3h87.8c5,0,9.4,2,12.6,5.3c3.2,3.2,5.3,7.7,5.3,12.7C129.8,24.2,129.8,112.7,129.8,112.7z"/>
	</g>
</g>
<path class="st0" d="M103.2,59.2H81.7c-1.1,0-2.2-0.5-3-1.2c-0.8-0.7-1.2-1.8-1.2-2.8V34.3c0-2.6-1-5-2.8-6.6
	c-1.7-1.7-4.1-2.7-6.6-2.7c-2.6,0-4.9,1-6.6,2.7c-1.7,1.7-2.8,3.9-2.8,6.5v20.8c0,1.1-0.4,2.2-1.2,2.9c-0.7,0.7-1.8,1.2-3,1.2H32.6
	c-2.6,0-4.9,1-6.6,2.7c-1.7,1.7-2.7,4.1-2.7,6.6c0,2.6,1,5,2.8,6.6c1.7,1.7,4.1,2.7,6.6,2.7h21.7c1.1,0,2.2,0.5,3,1.2
	s1.2,1.8,1.2,2.8v20.9c0,2.6,1.1,5,2.8,6.6c1.8,1.7,4.1,2.7,6.6,2.7s4.9-1,6.6-2.7c1.7-1.7,2.8-3.9,2.8-6.5V81.7
	c0-1.1,0.4-2.2,1.2-2.9c0.7-0.7,1.8-1.2,3-1.2h21.5c2.6,0,4.9-0.9,6.6-2.7c1.7-1.7,2.7-4.1,2.7-6.5c0-2.6-1-5-2.8-6.6
	C108,60.2,105.6,59.2,103.2,59.2z"/>
</svg>
