<?xml version="1.0" encoding="utf-8"?>
<!-- Generator: Adobe Illustrator 24.0.2, SVG Export Plug-In . SVG Version: 6.00 Build 0)  -->
<svg version="1.1" id="Layer_1" xmlns="http://www.w3.org/2000/svg" xmlns:xlink="http://www.w3.org/1999/xlink" x="0px" y="0px"
	 viewBox="0 0 136 137" style="enable-background:new 0 0 136 137;" xml:space="preserve">
<style type="text/css">
	.st0{fill:#3E3E3E;}
</style>
<g>
	<path class="st0" d="M110.9,6H26.1C14.9,6,5.8,15.1,5.8,26.3v84.8c0,11.2,9.1,20.3,20.3,20.3h84.8c11.2,0,20.3-9.1,20.3-20.3V26.3
		C131.2,15.1,122.1,6,110.9,6z M109.2,76.4H84.4c-4.4,0-7.9,3.4-7.9,7.7v24.1c0,4.2-3.6,7.7-7.9,7.7s-7.9-3.4-7.9-7.7V84.1
		c0-4.2-3.6-7.7-7.9-7.7H27.8c-4.4,0-7.9-3.4-7.9-7.7s3.6-7.7,7.9-7.7h24.8c4.4,0,7.9-3.4,7.9-7.7v-24c0-4.2,3.6-7.7,7.9-7.7
		c4.4,0,7.9,3.4,7.9,7.7v24.1c0,4.2,3.6,7.7,7.9,7.7h24.8c4.4,0,7.9,3.4,7.9,7.7S113.6,76.4,109.2,76.4z"/>
</g>
</svg>
