<?xml version="1.0" encoding="utf-8"?>
<!-- Generator: Adobe Illustrator 24.0.2, SVG Export Plug-In . SVG Version: 6.00 Build 0)  -->
<svg version="1.1" id="Layer_1" xmlns="http://www.w3.org/2000/svg" xmlns:xlink="http://www.w3.org/1999/xlink" x="0px" y="0px"
	 viewBox="0 0 136 137" style="enable-background:new 0 0 136 137;" xml:space="preserve">
<style type="text/css">
	.st0{fill:#FFFFFF;}
</style>
<g>
	<path class="st0" d="M106.2,60.4v52.4c0,3.4-1.3,6.4-3.6,8.6l0,0l0,0c-2.2,2.2-5.2,3.6-8.6,3.6H26.4c-3.4,0-6.4-1.3-8.6-3.6l0,0
		l0,0c-2.2-2.2-3.6-5.3-3.6-8.6V45.2c0-3.4,1.3-6.4,3.6-8.6l0,0l0,0C20,34.3,23,33,26.4,33h50l3.4-3.8c0.2-0.3,0.5-0.5,0.7-0.7
		l3.1-3.4H26.4c-5.5,0-10.6,2.2-14.3,5.9c-3.6,3.6-5.9,8.7-5.9,14.3v67.5c0,5.5,2.2,10.6,5.9,14.3l0,0c3.6,3.6,8.7,5.9,14.3,5.9H94
		c5.5,0,10.6-2.2,14.3-5.9l0,0c3.6-3.6,5.9-8.7,5.9-14.3V51.7l-4.3,4.8L106.2,60.4z"/>
</g>
<path class="st0" d="M107,37.7l-5.6-5.6c-1.7-1.7-4.4-1.7-6.1,0L61.9,65.6l-18-20.5c-1.5-1.7-4.1-1.9-5.8-0.4l-6.3,5.5
	c-1.7,1.5-1.9,4.1-0.4,5.8l18.8,21.3L28.7,98.8c-1.7,1.7-1.7,4.4,0,6.1l5.6,5.6c1.7,1.7,4.4,1.7,6.1,0l20.7-20.7l18.5,21
	c1.6,1.8,4.1,1.9,5.8,0.4l6.3-5.5c1.7-1.5,1.9-4.1,0.4-5.8L72.8,78L107,43.8C108.7,42.1,108.7,39.4,107,37.7z"/>
</svg>
