<?xml version="1.0" encoding="utf-8"?>
<!-- Generator: Adobe Illustrator 24.0.2, SVG Export Plug-In . SVG Version: 6.00 Build 0)  -->
<svg version="1.1" id="Layer_1" xmlns="http://www.w3.org/2000/svg" xmlns:xlink="http://www.w3.org/1999/xlink" x="0px" y="0px"
	 viewBox="0 0 136 137" style="enable-background:new 0 0 136 137;" xml:space="preserve">
<style type="text/css">
	.st0{fill:#FFFFFF;}
</style>
<g>
	<path class="st0" d="M107,59.3v56.1c0,3.6-1.4,6.8-3.9,9.2l0,0l0,0c-2.4,2.4-5.6,3.9-9.2,3.9H21.6c-3.6,0-6.8-1.4-9.2-3.9l0,0l0,0
		c-2.4-2.4-3.9-5.7-3.9-9.2V43.1c0-3.6,1.4-6.8,3.9-9.2l0,0l0,0c2.4-2.5,5.6-3.9,9.2-3.9h53.5l3.6-4.1c0.2-0.3,0.5-0.5,0.7-0.7
		l3.3-3.6H21.6c-5.9,0-11.3,2.4-15.3,6.3C2.5,31.7,0,37.2,0,43.2v72.2c0,5.9,2.4,11.3,6.3,15.3l0,0c3.9,3.9,9.3,6.3,15.3,6.3h72.3
		c5.9,0,11.3-2.4,15.3-6.3l0,0c3.9-3.9,6.3-9.3,6.3-15.3V50l-4.6,5.1L107,59.3z"/>
</g>
<path class="st0" d="M90.4,61.2l44.4-44.4c1-1,1.1-2.5,0.2-3.4L122.4,0.7C121.5-0.1,120,0,119,0.9l-15.6,15.6
	c-0.1,0.1-0.1,0.1-0.2,0.2L55.8,64.1L34.3,42.6c-0.9-0.9-2.3-0.9-3.1,0L18.4,55.3c-0.9,0.9-0.9,2.3,0,3.1L40,79.9l-25.4,25.4
	c-0.9,0.9-0.9,2.3,0,3.2l6.3,6.3l6.3,6.3c0.9,0.9,2.3,0.9,3.2,0l25.4-25.4l25.4,25.4c0.9,0.9,2.3,0.9,3.2,0L97,108.5
	c0.9-0.9,0.9-2.3,0-3.2L71.6,79.9L90.4,61.2C90.4,61.2,90.4,61.2,90.4,61.2z"/>
</svg>
