<?xml version="1.0" encoding="utf-8"?>
<!-- Generator: Adobe Illustrator 24.0.2, SVG Export Plug-In . SVG Version: 6.00 Build 0)  -->
<svg version="1.1" id="Layer_1" xmlns="http://www.w3.org/2000/svg" xmlns:xlink="http://www.w3.org/1999/xlink" x="0px" y="0px"
	 viewBox="0 0 175.9 177.2" style="enable-background:new 0 0 175.9 177.2;" xml:space="preserve">
<style type="text/css">
	.st0{fill:#3E3E3E;}
</style>
<g>
	<path class="st0" d="M108.1,42.9H28.7c-3.1,0-5.5-2.5-5.5-5.5v0c0-3.1,2.5-5.5,5.5-5.5h79.4c3.1,0,5.5,2.5,5.5,5.5v0
		C113.6,40.4,111.1,42.9,108.1,42.9z"/>
	<path class="st0" d="M108.1,63.7H28.7c-3.1,0-5.5-2.5-5.5-5.5v0c0-3.1,2.5-5.5,5.5-5.5h79.4c3.1,0,5.5,2.5,5.5,5.5v0
		C113.6,61.2,111.1,63.7,108.1,63.7z"/>
	<path class="st0" d="M108.1,87.9H28.7c-3.1,0-5.5-2.5-5.5-5.5v0c0-3.1,2.5-5.5,5.5-5.5h79.4c3.1,0,5.5,2.5,5.5,5.5v0
		C113.6,85.4,111.1,87.9,108.1,87.9z"/>
	<path class="st0" d="M75.1,112.4H28.7c-3.1,0-5.5-2.5-5.5-5.5v0c0-3.1,2.5-5.5,5.5-5.5h46.4c3.1,0,5.5,2.5,5.5,5.5v0
		C80.6,110,78.1,112.4,75.1,112.4z"/>
	<path class="st0" d="M167.3,115.4L129,89.3c-2.5-1.7-6-1.1-7.7,1.5v0c-1.7,2.5-1.1,6,1.5,7.7l24.3,16.6h-42.3
		c-3.1,0-5.5,2.5-5.5,5.5c0,3.1,2.5,5.5,5.5,5.5h44l-24.2,19.7c-2.4,1.9-2.7,5.4-0.8,7.8h0c1.9,2.4,5.4,2.7,7.8,0.8l36-29.3
		c1.1-0.9,1.7-2.1,1.9-3.4C170.1,119.4,169.4,116.8,167.3,115.4z"/>
	<g>
		<path class="st0" d="M136,32.6c0-6.7-2.7-12.7-7-17.1c-4.4-4.4-10.5-7.1-17.1-7.1H24.1c-6.6,0-12.7,2.7-17.1,7.1
			C2.6,19.9,0,26,0,32.7v88.4c0,6.7,2.7,12.8,7,17.2c4.3,4.4,10.5,7.1,17.1,7.1h65.4v-6.3H24.1c-5,0-9.4-2-12.6-5.3
			c-3.2-3.2-5.3-7.7-5.3-12.7V32.6c0-5,2-9.5,5.3-12.7c3.2-3.2,7.7-5.3,12.6-5.3h87.8c5,0,9.4,2,12.6,5.3c3.2,3.2,5.3,7.7,5.3,12.7
			v34.6h6.2V32.6z"/>
	</g>
</g>
</svg>
