<?xml version="1.0" encoding="utf-8"?>
<!-- Generator: Adobe Illustrator 24.0.2, SVG Export Plug-In . SVG Version: 6.00 Build 0)  -->
<svg version="1.1" id="Layer_1" xmlns="http://www.w3.org/2000/svg" xmlns:xlink="http://www.w3.org/1999/xlink" x="0px" y="0px"
	 viewBox="0 0 136 137" style="enable-background:new 0 0 136 137;" xml:space="preserve">
<style type="text/css">
	.st0{fill:#FFFFFF;}
</style>
<g>
	<path class="st0" d="M60.3,63.7c-0.9,1.5-1.5,2.8-1.7,3.9L48.5,91.4c-1,2.3,0,3.1,2.2,2L73.3,81c1.2-0.3,2.8-1.2,4.4-2.6
		c0.6-0.5,1.2-1.1,1.8-1.7l0.4-0.4l16.4-18L128,23.5c3.3-3.6,4.9-7.5,3.7-8.6L119,3.3c-1.3-1.1-5,0.9-8.3,4.5l-31,34.1
		c-0.2,0.2-0.5,0.5-0.7,0.7L62.2,61.1C61.5,61.9,60.8,62.8,60.3,63.7z"/>
</g>
<g>
	<path class="st0" d="M106.2,60.4v52.4c0,3.4-1.3,6.4-3.6,8.6l0,0l0,0c-2.2,2.2-5.2,3.6-8.6,3.6H26.4c-3.4,0-6.4-1.3-8.6-3.6l0,0
		l0,0c-2.2-2.2-3.6-5.3-3.6-8.6V45.2c0-3.4,1.3-6.4,3.6-8.6l0,0l0,0C20,34.3,23,33,26.4,33h50l3.4-3.8c0.2-0.3,0.5-0.5,0.7-0.7
		l3.1-3.4H26.4c-5.5,0-10.6,2.2-14.3,5.9c-3.6,3.6-5.9,8.7-5.9,14.3v67.5c0,5.5,2.2,10.6,5.9,14.3l0,0c3.6,3.6,8.7,5.9,14.3,5.9H94
		c5.5,0,10.6-2.2,14.3-5.9l0,0c3.6-3.6,5.9-8.7,5.9-14.3V51.7l-4.3,4.8L106.2,60.4z"/>
</g>
</svg>
