<?xml version="1.0" encoding="utf-8"?>
<!-- Generator: Adobe Illustrator 24.0.2, SVG Export Plug-In . SVG Version: 6.00 Build 0)  -->
<svg version="1.1" id="Layer_1" xmlns="http://www.w3.org/2000/svg" xmlns:xlink="http://www.w3.org/1999/xlink" x="0px" y="0px"
	 viewBox="0 0 136 137" style="enable-background:new 0 0 136 137;" xml:space="preserve">
<style type="text/css">
	.st0{fill:#FFFFFF;}
</style>
<g>
	<path class="st0" d="M107,59.3v56.1c0,3.6-1.4,6.8-3.9,9.2l0,0l0,0c-2.4,2.4-5.6,3.9-9.2,3.9H21.6c-3.6,0-6.8-1.4-9.2-3.9l0,0l0,0
		c-2.4-2.4-3.9-5.7-3.9-9.2V43.1c0-3.6,1.4-6.8,3.9-9.2l0,0l0,0c2.4-2.5,5.6-3.9,9.2-3.9h53.5l3.6-4.1c0.2-0.3,0.5-0.5,0.7-0.7
		l3.3-3.6H21.6c-5.9,0-11.3,2.4-15.3,6.3C2.5,31.7,0,37.2,0,43.2v72.2c0,5.9,2.4,11.3,6.3,15.3l0,0c3.9,3.9,9.3,6.3,15.3,6.3h72.3
		c5.9,0,11.3-2.4,15.3-6.3l0,0c3.9-3.9,6.3-9.3,6.3-15.3V50l-4.6,5.1L107,59.3z"/>
</g>
<path class="st0" d="M122.4,0.7L135,13.4c0.9,0.9,0.9,2.3,0,3.1L72.8,78.8c-0.2,0.2-0.4,0.3-0.6,0.4L48.9,89.8
	c-1.9,0.8-3.8-1.1-2.9-2.9l10.6-23.3c0.1-0.2,0.3-0.5,0.4-0.6l62.2-62.2C120.1-0.1,121.5-0.1,122.4,0.7z"/>
</svg>
