<?xml version="1.0" encoding="utf-8"?>
<!-- Generator: Adobe Illustrator 24.0.2, SVG Export Plug-In . SVG Version: 6.00 Build 0)  -->
<svg version="1.1" id="Layer_1" xmlns="http://www.w3.org/2000/svg" xmlns:xlink="http://www.w3.org/1999/xlink" x="0px" y="0px"
	 viewBox="0 0 136 137" style="enable-background:new 0 0 136 137;" xml:space="preserve">
<style type="text/css">
	.st0{fill:#3E3E3E;}
</style>
<g>
	<path class="st0" d="M117.5,97.5c-0.7-1.4-1.9-2.7-3.4-3.5l0,0L73.2,69.4c12.4-7.5,24.6-15.1,37-22.8l0,0c1.5-0.9,2.6-2.1,3.3-3.4
		c0.7-1.4,1.1-2.9,1.1-4.4c0-1-0.2-2-0.5-3s-0.7-2-1.4-2.9v-0.1v-0.1c-1-1.3-2.2-2.2-3.5-2.9c-1.3-0.7-2.8-1.1-4.4-1.1
		c-0.8,0-1.8,0.1-2.9,0.4c-0.9,0.3-1.9,0.8-2.8,1.5L49.7,61.2l-0.3,0.2l-0.2,0.2c-1.1,0.9-2,2-2.6,3.4c-0.7,1.3-1.1,2.9-1.1,4.5
		s0.4,3.1,1.1,4.4c0.7,1.3,1.6,2.4,2.6,3.3l0.2,0.2L103,110c0.8,0.6,1.7,1,2.7,1.3s2,0.5,3,0.5c1.6,0,3.1-0.4,4.4-1.1
		s2.4-1.6,3.3-2.6V108v-0.1c0.8-1,1.3-2.1,1.6-3.1c0.3-1,0.5-1.9,0.5-2.9C118.5,100.5,118.2,99,117.5,97.5z"/>
	<path class="st0" d="M27.5,22.6c-5.5,0-10,5.5-10,12.3v67.3c0,6.8,4.5,12.3,10,12.3s10-5.5,10-12.3V34.9
		C37.4,28.1,33,22.6,27.5,22.6z"/>
</g>
</svg>
