<?xml version="1.0" encoding="utf-8"?>
<!-- Generator: Adobe Illustrator 24.0.2, SVG Export Plug-In . SVG Version: 6.00 Build 0)  -->
<svg version="1.1" id="Layer_1" xmlns="http://www.w3.org/2000/svg" xmlns:xlink="http://www.w3.org/1999/xlink" x="0px" y="0px"
	 viewBox="0 0 136 137" style="enable-background:new 0 0 136 137;" xml:space="preserve">
<style type="text/css">
	.st0{fill:#FFFFFF;}
	.st1{fill:#3E3E3E;}
</style>
<path class="st0" d="M75.2,54.1c-1.9-0.8-3.9-1.2-6.1-1.2c-3.2,0-6.2,1-8.7,2.7c-2.5,1.7-4.5,4.1-5.7,6.9c-0.8,1.9-1.2,3.9-1.2,6.1
	c0,3.2,1,6.2,2.7,8.7c1.7,2.5,4.1,4.5,6.9,5.7c1.9,0.8,3.9,1.2,6.1,1.2c3.2,0,6.2-1,8.7-2.7c2.5-1.7,4.5-4.1,5.7-6.9
	c0.8-1.9,1.2-3.9,1.2-6.1c0-3.2-1-6.2-2.7-8.7C80.4,57.3,78.1,55.3,75.2,54.1z"/>
<g>
	<path class="st1" d="M110.9,6H26.1C14.9,6,5.8,15.1,5.8,26.3v84.8c0,11.2,9.1,20.3,20.3,20.3h84.8c11.2,0,20.3-9.1,20.3-20.3V26.3
		C131.2,15.1,122.1,6,110.9,6z M120.1,69.1L120.1,69.1c0,1.2-0.3,2.3-0.7,3.4c-0.4,1.1-1,2.2-1.7,3.4c-1.5,2.3-3.5,4.9-6.1,7.4
		C106.3,88.4,99,93.6,90,96.9c-6,2.2-12.7,3.7-19.9,3.7c-9.2,0-17.8-2-25.4-5c-7.6-3.1-14-7.2-18.7-11.6c-3.1-3-5.5-6.1-6.9-9.3
		c-0.8-1.8-1.3-3.7-1.3-5.6c0-1.2,0.3-2.4,0.8-3.5c0.5-1.1,1.1-2.3,1.9-3.5c1.6-2.4,3.8-4.9,6.5-7.4c5.5-5.1,13.1-10.1,22.2-13.4
		c6-2.2,12.7-3.6,19.8-3.6c9.2,0,17.8,2.2,25.2,5.5c7.4,3.3,13.6,7.6,18.1,12.1c3,3,5.3,5.9,6.6,8.8
		C119.6,65.7,120.1,67.4,120.1,69.1L120.1,69.1z"/>
	<g>
		<path class="st1" d="M113.7,67.4c-0.3-0.7-0.7-1.6-1.3-2.6c-1.2-1.9-3.1-4.2-5.5-6.4c-4.9-4.5-11.9-8.9-20.1-11.7
			c-5.5-1.9-11.5-3-17.8-3c-8.2,0-16,2.1-22.7,5.3c-6.7,3.2-12.4,7.3-16.4,11.3c-2.6,2.6-4.5,5.1-5.4,6.9c-0.5,1-0.7,1.8-0.7,2
			c0,0.9,0.2,1.9,0.8,3.2c0.5,1.2,1.4,2.6,2.5,4c2.3,2.9,5.7,5.9,10,8.6c8.5,5.5,20.4,9.6,33,9.6c7.9,0,15.2-1.9,21.5-4.8
			c6.3-2.9,11.5-6.7,15.4-10.4c2.6-2.5,4.5-4.9,5.7-6.9c0.7-1.1,1.1-2.1,1.3-2.7c0.1-0.3,0.1-0.6,0.1-0.7v0l0,0l0,0
			C114.1,68.7,114,68.1,113.7,67.4z M69.1,82.9c-7.8,0-14.2-6.3-14.2-14.2s6.3-14.2,14.2-14.2s14.2,6.3,14.2,14.2
			S76.9,82.9,69.1,82.9z"/>
	</g>
</g>
</svg>
