<?xml version="1.0" encoding="utf-8"?>
<!-- Generator: Adobe Illustrator 24.0.2, SVG Export Plug-In . SVG Version: 6.00 Build 0)  -->
<svg version="1.1" id="Layer_1" xmlns="http://www.w3.org/2000/svg" xmlns:xlink="http://www.w3.org/1999/xlink" x="0px" y="0px"
	 viewBox="0 0 136 137" style="enable-background:new 0 0 136 137;" xml:space="preserve">
<style type="text/css">
	.st0{fill:#3E3E3E;}
</style>
<g>
	<path class="st0" d="M47.7,38.8L47.7,38.8L47.7,38.8z"/>
	<path class="st0" d="M15.9,76.3L15.9,76.3L15.9,76.3z"/>
	<path class="st0" d="M126.9,10.2c-4.2-4.2-10.1-6.8-16.5-6.8H25.6c-6.4,0-12.3,2.6-16.5,6.8S2.3,20.3,2.3,26.7v84.8
		c0,6.4,2.6,12.3,6.8,16.5s10.1,6.8,16.5,6.8h84.8c6.4,0,12.3-2.6,16.5-6.8c4.2-4.2,6.8-10.1,6.8-16.5V26.6
		C133.7,20.2,131.1,14.4,126.9,10.2z M127.7,111.5c0,4.8-1.9,9.1-5.1,12.2c-3.1,3.1-7.4,5.1-12.2,5.1H25.6c-4.8,0-9.1-1.9-12.2-5.1
		c-3.1-3.1-5.1-7.4-5.1-12.2V26.6c0-4.8,1.9-9.1,5.1-12.2c3.1-3.1,7.4-5.1,12.2-5.1h84.8c4.8,0,9.1,1.9,12.2,5.1
		c3.1,3.1,5.1,7.4,5.1,12.2C127.7,26.6,127.7,111.5,127.7,111.5z"/>
	<g>
		<path class="st0" d="M114.1,64.8c-1.4-3-3.6-5.9-6.4-8.6c-4.3-4.3-10-8.3-16.9-11.3c-6.8-3-14.8-5.1-23.4-5.1
			c-6.7,0.1-12.9,1.3-18.5,3.4c-8.4,3.1-15.4,7.7-20.6,12.4c-2.5,2.3-4.6,4.7-6.2,7c-0.8,1.2-1.4,2.4-1.9,3.5c-0.6,1.2-1,2.7-1,4.2
			c0,2.1,0.5,4.2,1.4,6c1.4,3.3,3.8,6.3,6.7,9.1c4.4,4.2,10.4,8,17.4,10.8s15,4.6,23.5,4.6c6.7,0,13-1.4,18.5-3.5
			c8.4-3.1,15.2-7.9,20.1-12.7c2.5-2.4,4.3-4.9,5.8-7v-0.1v-0.1c0.6-1.1,1.2-2.2,1.7-3.5c0.4-1.1,0.8-2.4,0.8-3.9
			C115.4,68.3,114.8,66.4,114.1,64.8z M81.9,85c-3.5,3.6-8.4,5.8-13.8,5.8S57.8,88.5,54.3,85c-3.6-3.5-5.8-8.4-5.8-13.8
			s2.3-10.3,5.8-13.8c3.5-3.6,8.4-5.8,13.8-5.8s10.3,2.3,13.8,5.8c3.4,3.5,5.6,8.4,5.8,13.8C87.7,76.6,85.4,81.4,81.9,85z"/>
	</g>
</g>
<circle class="st0" cx="68" cy="71.1" r="11.2"/>
</svg>
