<?xml version="1.0" encoding="utf-8"?>
<!-- Generator: Adobe Illustrator 24.0.2, SVG Export Plug-In . SVG Version: 6.00 Build 0)  -->
<svg version="1.1" id="Layer_2_1_" xmlns="http://www.w3.org/2000/svg" xmlns:xlink="http://www.w3.org/1999/xlink" x="0px" y="0px"
	 viewBox="0 0 184.3 184.3" style="enable-background:new 0 0 184.3 184.3;" xml:space="preserve">
<style type="text/css">
	.st0{fill:#424242;}
</style>
<g>
	<path class="st0" d="M170.1,29.1c-2.3-7.4-9.6-12.7-18.2-12.7s-15.8,5.4-18.2,12.7c-2.3-7.4-9.6-12.7-18.2-12.7
		s-15.8,5.4-18.2,12.7c-0.6,2.1-1,4.3-1,6.6c0,5.8,2.1,11,5.6,15.1l1.2,1.3l27.1,29.1c0.9,1,2.2,1.5,3.4,1.5s2.5-0.5,3.4-1.5
		L164.2,52l1.2-1.3c3.5-4,5.6-9.3,5.6-15.1C171,33.4,170.7,31.2,170.1,29.1z"/>
	<g>
		<path class="st0" d="M127.2,85.1L100.1,56l-1.2-1.3c-2.4-2.8-4.2-6.1-5-9.8H24.6c-5.4,0-9.7,4.4-9.7,9.7V163
			c0,5.4,4.4,9.7,9.7,9.7h96.3c5.4,0,9.7-4.4,9.7-9.7V86.7C129.4,86.7,128.2,86.2,127.2,85.1z M102.7,155.6H41.8c-1.7,0-3-1.4-3-3
			c0-1.7,1.4-3,3-3h60.9c1.7,0,3,1.4,3,3C105.7,154.2,104.3,155.6,102.7,155.6z M102.7,138.1H41.8c-1.7,0-3-1.4-3-3s1.4-3,3-3h60.9
			c1.7,0,3,1.4,3,3S104.3,138.1,102.7,138.1z M102.7,119.5H41.8c-1.7,0-3-1.4-3-3c0-1.7,1.4-3,3-3h60.9c1.7,0,3,1.4,3,3
			C105.7,118.2,104.3,119.5,102.7,119.5z M102.7,102.5H41.8c-1.7,0-3-1.4-3-3c0-1.7,1.4-3,3-3h60.9c1.7,0,3,1.4,3,3
			S104.3,102.5,102.7,102.5z M102.7,83.9H41.8c-1.7,0-3-1.4-3-3c0-1.7,1.4-3,3-3h60.9c1.7,0,3,1.4,3,3S104.3,83.9,102.7,83.9z"/>
	</g>
</g>
</svg>
