<?xml version="1.0" encoding="utf-8"?>
<!-- Generator: Adobe Illustrator 24.0.2, SVG Export Plug-In . SVG Version: 6.00 Build 0)  -->
<svg version="1.1" id="Layer_2_1_" xmlns="http://www.w3.org/2000/svg" xmlns:xlink="http://www.w3.org/1999/xlink" x="0px" y="0px"
	 viewBox="0 0 184.3 184.3" style="enable-background:new 0 0 184.3 184.3;" xml:space="preserve">
<style type="text/css">
	.st0{fill:#E83A68;}
	.st1{fill:none;}
	.st2{fill:#424242;}
</style>
<path class="st0" d="M176.3,109.8c-3.9-4.1-10.3-4.3-14.5-0.4l-37,35.7l-4.4-5.3h0l-12-14.5c-1.7-2.1-4-3.2-6.5-3.6
	c-2.8-0.4-5.7,0.4-7.9,2.4c-1.5,1.3-2.5,3-3.2,4.8c-1,3.3-0.4,7,2,9.9l7.7,9.2h0l7.9,9.5l11.1,13.5c1,1.2,2.4,1.9,3.8,1.9
	c1.4,0.1,2.9-0.4,3.9-1.5l6.6-6.5c0.2-0.2,0.6-0.4,0.8-0.7l41.4-40C180,120.6,180.2,114.1,176.3,109.8z"/>
<g>
	<path class="st1" d="M107.4,108.6H39.8c-1.8,0-3.3,1.6-3.3,3.3s1.4,3.3,3.3,3.3h67.6c1.8,0,3.3-1.6,3.3-3.3
		S109.3,108.6,107.4,108.6z"/>
	<path class="st1" d="M107.4,48.4H39.8c-1.8,0-3.3,1.4-3.3,3.3c0,1.8,1.4,3.3,3.3,3.3h67.6c1.8,0,3.3-1.6,3.3-3.3
		C110.7,50,109.3,48.4,107.4,48.4z"/>
	<path class="st1" d="M107.4,69.1H39.8c-1.8,0-3.3,1.4-3.3,3.3c0,1.8,1.4,3.3,3.3,3.3h67.6c1.8,0,3.3-1.6,3.3-3.3
		C110.7,70.6,109.3,69.1,107.4,69.1z"/>
	<path class="st1" d="M107.4,87.9H39.8c-1.8,0-3.3,1.4-3.3,3.3c0,1.8,1.4,3.3,3.3,3.3h67.6c1.8,0,3.3-1.4,3.3-3.3
		C110.7,89.5,109.3,87.9,107.4,87.9z"/>
	<path class="st2" d="M138.8,29.5c0-9-7.3-16.4-16.4-16.4H23.1c-9,0-16.4,7.3-16.4,16.4v124c0,9,7.3,16.4,16.4,16.4h82.7h5.9
		L100,156.2h0l-11.9-13.9c-1.9-2.3-3.1-4.9-3.5-7.6h-3H39.8c-1.9,0-3.3-1.6-3.3-3.3c0-1.9,1.6-3.3,3.3-3.3h45
		c0.1-0.2,0.1-0.5,0.2-0.7c1-2.7,2.6-5.3,4.9-7.2c3.5-3,7.9-4.1,12.3-3.6c3.8,0.5,7.4,2.3,10.1,5.4l13,15.2l13.4-12.8V29.5z
		 M107.4,115.2H39.8c-1.9,0-3.3-1.6-3.3-3.3s1.6-3.3,3.3-3.3h67.6c1.9,0,3.3,1.6,3.3,3.3S109.2,115.2,107.4,115.2z M107.4,94.6H39.8
		c-1.9,0-3.3-1.6-3.3-3.3c0-1.9,1.6-3.3,3.3-3.3h67.6c1.9,0,3.3,1.6,3.3,3.3C110.7,93.2,109.2,94.6,107.4,94.6z M107.4,75.7H39.8
		c-1.9,0-3.3-1.6-3.3-3.3c0-1.9,1.6-3.3,3.3-3.3h67.6c1.9,0,3.3,1.6,3.3,3.3C110.7,74.2,109.2,75.7,107.4,75.7z M107.4,55.1H39.8
		c-1.9,0-3.3-1.6-3.3-3.3c0-1.9,1.6-3.3,3.3-3.3h67.6c1.9,0,3.3,1.6,3.3,3.3C110.7,53.5,109.2,55.1,107.4,55.1z"/>
</g>
</svg>
